<svg
   xmlns:svg="http://www.w3.org/2000/svg"
   xmlns="http://www.w3.org/2000/svg"
   version="1.1"
   viewBox="0 0 16 16"
   id="svg2"
   xml:space="preserve"><defs
     id="defs6"><clipPath
       id="clipPath20"><path
         d="M 0,1440 0,0 l 1551.6,0 0,1440 L 0,1440 z"
         id="path22" /></clipPath></defs><g
     transform="matrix(1.25,0,0,-1.25,-88.975,97.424594)"
     id="g12"><g
       transform="scale(0.1,0.1)"
       id="g14"><g
         id="g16"><g
           clip-path="url(#clipPath20)"
           id="g18"><path
             d="m 810.69994,680.78377 -16.5072,0 0,25.84565 c 0,6.16631 -0.11291,14.09386 -8.58331,14.09386 -8.59583,0 -9.91206,-6.71495 -9.91206,-13.6473 l 0,-26.29221 -16.50613,0 0,53.14783 15.84543,0 0,-7.26144 0.21963,0 c 2.20386,4.1784 7.59244,8.58432 15.62881,8.58432 16.7267,0 19.81483,-11.00811 19.81483,-25.31759 l 0,-29.15312 z m -70.12441,60.41343 c -5.29438,0 -9.57972,4.29292 -9.57972,9.57981 0,5.28225 4.28534,9.57456 9.57972,9.57456 5.28048,0 9.57186,-4.29231 9.57186,-9.57456 0,-5.28689 -4.29138,-9.57981 -9.57186,-9.57981 z m 8.25564,-60.41343 -16.51914,0 0,53.14783 16.51914,0 0,-53.14783 z m 70.09532,94.90023 -94.90573,0 c -4.5352,0 -8.22027,-3.59472 -8.22027,-8.02701 l 0,-95.30471 c 0,-4.43609 3.68507,-8.03628 8.22027,-8.03628 l 94.90573,0 c 4.54288,0 8.24355,3.60019 8.24355,8.03628 l 0,95.30471 c 0,4.43229 -3.70067,8.02701 -8.24355,8.02701"
             id="path24"
             style="fill:#828282;fill-opacity:1;fill-rule:nonzero;stroke:none" /><path
             d="m 832.78953,683.19952 -0.52125,0 0,1.05644 0.66046,0 c 0.34106,0 0.73162,-0.0555 0.73162,-0.50177 0,-0.51359 -0.39365,-0.55467 -0.87083,-0.55467 z m 0.51816,-0.31329 c 0.52668,0.065 0.802,0.35437 0.802,0.84228 0,0.59481 -0.35884,0.88337 -1.0982,0.88337 l -1.191,0 0,-3.12709 0.44779,0 0,1.3613 0.55297,0 0.0124,-0.0163 0.85614,-1.34499 0.47949,0 -0.9211,1.39394 0.0595,0.007"
             id="path26"
             style="fill:#828282;fill-opacity:1;fill-rule:nonzero;stroke:none" /><path
             d="m 832.8413,680.47442 c -1.41685,0 -2.52666,1.11746 -2.52666,2.57089 0,1.44918 1.10981,2.56758 2.52666,2.56758 1.41531,0 2.52511,-1.1184 2.52511,-2.56758 0,-1.45343 -1.1098,-2.57089 -2.52511,-2.57089 z m 0,5.52725 c -1.66046,0 -2.96208,-1.29992 -2.96208,-2.95636 0,-1.66131 1.30162,-2.95759 2.96208,-2.95759 1.65892,0 2.95821,1.29628 2.95821,2.95759 0,1.65644 -1.29929,2.95636 -2.95821,2.95636"
             id="path28"
             style="fill:#828282;fill-opacity:1;fill-rule:nonzero;stroke:none" /></g></g></g></g></svg>