<?xml version="1.0" encoding="UTF-8" standalone="no"?>
<!-- Created with Inkscape (http://www.inkscape.org/) -->

<svg
   xmlns:svg="http://www.w3.org/2000/svg"
   xmlns="http://www.w3.org/2000/svg"
   version="1.1"
   width="17.24"
   height="16"
   id="svg2"
   xml:space="preserve"><defs
     id="defs6"><clipPath
       id="clipPath20"><path
         d="M 0,1440 0,0 l 1551.6,0 0,1440 L 0,1440 z"
         id="path22" /></clipPath></defs><g
     transform="matrix(1.25,0,0,-1.25,-88.355,98)"
     id="g12"><g
       transform="scale(0.1,0.1)"
       id="g14"><g
         id="g16"><g
           clip-path="url(#clipPath20)"
           id="g18"><path
             d="m 815.912,674.92711 -18.97244,0 0,29.70551 c 0,7.0872 -0.12978,16.19867 -9.86516,16.19867 -9.87956,0 -11.39236,-7.71778 -11.39236,-15.68542 l 0,-30.21876 -18.9712,0 0,61.08507 18.21183,0 0,-8.34587 0.25244,0 c 2.53298,4.8024 8.72631,9.86631 17.96285,9.86631 19.22471,0 22.77404,-12.65209 22.77404,-29.09858 l 0,-33.50693 z m -80.59698,69.43573 c -6.08506,0 -11.0104,4.93405 -11.0104,11.01049 0,6.07111 4.92534,11.00445 11.0104,11.00445 6.06907,0 11.00134,-4.93334 11.00134,-11.00445 0,-6.07644 -4.93227,-11.01049 -11.00134,-11.01049 z m 9.48854,-69.43573 -18.98614,0 0,61.08507 18.98614,0 0,-61.08507 z M 825.36711,784 l -109.0792,0 c -5.2125,0 -9.44791,-4.13156 -9.44791,-9.22578 l 0,-109.53778 c 0,-5.09859 4.23541,-9.23644 9.44791,-9.23644 l 109.0792,0 c 5.22133,0 9.47467,4.13785 9.47467,9.23644 l 0,109.53778 c 0,5.09422 -4.25334,9.22578 -9.47467,9.22578"
             id="path24"
             style="fill:#828282;fill-opacity:1;fill-rule:nonzero;stroke:none" /><path
             d="m 841.30133,677.70311 -0.59911,0 0,1.21422 0.75911,0 c 0.392,0 0.84089,-0.0638 0.84089,-0.57671 0,-0.59031 -0.45244,-0.63751 -1.00089,-0.63751 z m 0.59556,-0.36009 c 0.60533,0.0747 0.92178,0.40729 0.92178,0.96809 0,0.68365 -0.41245,1.01529 -1.26223,1.01529 l -1.36888,0 0,-3.59413 0.51466,0 0,1.56462 0.63556,0 0.0142,-0.0188 0.984,-1.54586 0.55111,0 -1.05867,1.60213 0.0684,0.009"
             id="path26"
             style="fill:#828282;fill-opacity:1;fill-rule:nonzero;stroke:none" /><path
             d="m 841.36,674.57156 c -1.62844,0 -2.904,1.28435 -2.904,2.95484 0,1.6656 1.27556,2.95102 2.904,2.95102 1.62667,0 2.90222,-1.28542 2.90222,-2.95102 0,-1.67049 -1.27555,-2.95484 -2.90222,-2.95484 z m 0,6.35271 c -1.90844,0 -3.40444,-1.49405 -3.40444,-3.39787 0,-1.90942 1.496,-3.39929 3.40444,-3.39929 1.90667,0 3.4,1.48987 3.4,3.39929 0,1.90382 -1.49333,3.39787 -3.4,3.39787"
             id="path28"
             style="fill:#828282;fill-opacity:1;fill-rule:nonzero;stroke:none" /></g></g></g></g></svg>